<svg width="43" height="43" viewBox="0 0 43 43" fill="none" xmlns="http://www.w3.org/2000/svg">
<circle cx="21.5" cy="21.5" r="21.5" fill="url(#paint0_linear_136_4178)"/>
<path d="M23.6264 25.2219H20.373C20.0317 25.2219 19.7551 24.9468 19.7551 24.6074V22.7611H17.8991C17.5578 22.7611 17.2812 22.486 17.2812 22.1466V18.9113C17.2812 18.5718 17.5578 18.2967 17.8991 18.2967H19.7551V16.4505C19.7551 16.111 20.0317 15.8359 20.373 15.8359H23.6264C23.9677 15.8359 24.2443 16.111 24.2443 16.4505V18.2967H26.1003C26.4416 18.2967 26.7182 18.5718 26.7182 18.9113V22.1466C26.7182 22.486 26.4416 22.7611 26.1003 22.7611H24.2443V24.6074C24.2443 24.9468 23.9677 25.2219 23.6264 25.2219ZM20.9909 23.9928H23.0086V22.1466C23.0086 21.8072 23.2852 21.5321 23.6264 21.5321H25.4825V19.5258H23.6264C23.2852 19.5258 23.0086 19.2507 23.0086 18.9113V17.065H20.9909V18.9113C20.9909 19.2507 20.7143 19.5258 20.373 19.5258H18.517V21.5321H20.373C20.7143 21.5321 20.9909 21.8072 20.9909 22.1466V23.9928Z" fill="white"/>
<path d="M22 32C21.8653 32 21.7304 31.9564 21.6186 31.8689C20.3462 30.876 14 25.639 14 20.0166C14 15.6886 17.522 12.1082 21.8647 12.0045C21.8894 12.0014 21.9145 12 21.9401 12L21.9903 12.001L22.0599 12C22.0857 12 22.111 12.0016 22.1357 12.0045C26.478 12.1086 30 15.6888 30 20.0166C30 25.639 23.6538 30.876 22.3814 31.8689C22.2694 31.9564 22.1347 32 22 32ZM21.9909 13.2303C21.9773 13.2313 21.9635 13.2321 21.95 13.2323C18.2476 13.2907 15.2357 16.3343 15.2357 20.0168C15.2357 24.6578 20.2562 29.1701 22 30.5968C23.7438 29.1701 28.7643 24.6578 28.7643 20.0168C28.7643 16.3341 25.7524 13.2907 22.05 13.2323C22.0362 13.2321 22.0224 13.2315 22.0089 13.2303L22 13.2305L21.9909 13.2303Z" fill="white"/>
<defs>
<linearGradient id="paint0_linear_136_4178" x1="33.0703" y1="3.98675" x2="-6.77596" y2="22.8497" gradientUnits="userSpaceOnUse">
<stop stop-color="#107A71"/>
<stop offset="1" stop-color="#3FAD88"/>
</linearGradient>
</defs>
</svg>
