<svg width="43" height="43" viewBox="0 0 43 43" fill="none" xmlns="http://www.w3.org/2000/svg">
<circle cx="21.5" cy="21.5" r="21.5" fill="url(#paint0_linear_136_4170)"/>
<path d="M27.8913 23.8765C27.7706 23.7411 27.2751 23.2395 26.5758 23.2395C26.2495 23.2395 25.9409 23.3463 25.6581 23.5571C25.2719 23.8454 24.6963 24.355 24.2897 24.7239L19.2569 19.732C19.7032 19.2434 20.1823 18.7004 20.4582 18.3313C21.1107 17.4587 20.6299 16.5295 20.1354 16.1006C19.9088 15.8744 17.8819 13.8541 17.3815 13.4196C17.066 13.1452 16.6794 13 16.2633 13C15.9257 13 15.6759 13.0976 15.6292 13.1171L15.4123 13.2451C14.3148 13.9481 13.0713 14.745 13 17.8664C12.9979 20.2771 14.5957 23.0951 17.7492 26.2423C20.0558 28.5441 22.7947 31 26.1188 31L26.1383 30.9998C29.2528 30.9287 30.0506 29.6876 30.7547 28.5926L30.831 28.4741L30.8823 28.3769C31.0305 28.0259 31.1338 27.2624 30.5808 26.6271C30.1435 26.1261 28.1051 24.0898 27.8913 23.8765ZM26.576 24.4983C26.714 24.4983 26.8912 24.6471 26.9463 24.7098L26.9847 24.7516C27.7515 25.5166 29.291 27.0656 29.6293 27.4533C29.7666 27.6113 29.7458 27.7857 29.7288 27.8579L29.6932 27.9132C29.6186 28.0293 29.5456 28.1421 29.4714 28.2515L26.0601 24.847C26.1892 24.7394 26.3101 24.6425 26.4133 24.5655C26.494 24.5053 26.5447 24.4983 26.576 24.4983ZM16.1439 14.2723C16.1725 14.2658 16.2145 14.2591 16.2631 14.2591C16.3745 14.2591 16.4666 14.2939 16.553 14.369C16.9424 14.707 18.4943 16.2433 19.2606 17.0083L19.3025 17.0464C19.3584 17.093 19.6275 17.3372 19.4469 17.5787C19.3721 17.679 19.2701 17.8053 19.149 17.9497L15.7329 14.5404C15.8493 14.4611 15.9698 14.3839 16.0938 14.3044L16.1439 14.2723ZM26.1232 29.7411L26.1188 30.3706V29.7411C23.5627 29.7411 21.2808 27.9867 18.6413 25.3523C15.7741 22.4909 14.2595 19.9028 14.2612 17.8815C14.289 16.6616 14.4992 15.9265 14.8265 15.4164L18.3133 18.8959C18.1958 19.0245 18.0741 19.1569 17.9439 19.2967L17.5047 19.7692L24.2597 26.4685L24.7037 26.0547C24.7449 26.0161 24.9021 25.8699 25.1111 25.6802L28.6008 29.1633C28.091 29.4973 27.3554 29.7128 26.1232 29.7411Z" fill="white"/>
<defs>
<linearGradient id="paint0_linear_136_4170" x1="33.0703" y1="3.98675" x2="-6.77596" y2="22.8497" gradientUnits="userSpaceOnUse">
<stop stop-color="#107A71"/>
<stop offset="1" stop-color="#3FAD88"/>
</linearGradient>
</defs>
</svg>
