<svg width="43" height="43" viewBox="0 0 43 43" fill="none" xmlns="http://www.w3.org/2000/svg">
<circle cx="21.5" cy="21.5" r="21.5" fill="url(#paint0_linear_220_11788)"/>
<path d="M30.6364 14H11.7273C11.325 14 11 14.325 11 14.7273V29.2727C11 29.675 11.325 30 11.7273 30H30.6364C31.0386 30 31.3636 29.675 31.3636 29.2727V14.7273C31.3636 14.325 31.0386 14 30.6364 14ZM29.7273 16.5182V28.3636H12.6364V16.5182L12.0091 16.0295L12.9023 14.8818L13.875 15.6386H28.4909L29.4636 14.8818L30.3568 16.0295L29.7273 16.5182ZM28.4909 15.6364L21.1818 21.3182L13.8727 15.6364L12.9 14.8795L12.0068 16.0273L12.6341 16.5159L20.3977 22.5523C20.621 22.7257 20.8957 22.8199 21.1784 22.8199C21.4611 22.8199 21.7358 22.7257 21.9591 22.5523L29.7273 16.5182L30.3545 16.0295L29.4614 14.8818L28.4909 15.6364Z" fill="white"/>
<defs>
<linearGradient id="paint0_linear_220_11788" x1="33.0703" y1="3.98675" x2="-6.77596" y2="22.8497" gradientUnits="userSpaceOnUse">
<stop stop-color="#107A71"/>
<stop offset="1" stop-color="#3FAD88"/>
</linearGradient>
</defs>
</svg>
