<svg width="91" height="91" viewBox="0 0 91 91" fill="none" xmlns="http://www.w3.org/2000/svg">
<circle cx="45.5" cy="45.5" r="45.5" fill="url(#paint0_linear_82_9312)"/>
<path d="M60.7531 31.1668H49.6903L48.5169 27.0455C48.3407 26.4266 47.7773 26 47.1358 26H40.5931C39.9516 26 39.3881 26.4266 39.212 27.0455L38.0386 31.1668H27.3085C24.9326 31.1668 23 33.1064 23 35.4909V55.67C23 57.8373 24.598 59.6313 26.6728 59.9417C26.6723 59.9595 26.6699 59.9763 26.6699 59.9941C26.6699 63.0853 29.1755 65.6 32.2556 65.6C35.3357 65.6 37.8414 63.0853 37.8414 59.9941H52.3611C52.3611 63.0853 54.8667 65.6 57.9468 65.6C61.0269 65.6 63.5326 63.0853 63.5326 59.9941H63.6915C66.0674 59.9941 68 58.0545 68 55.67V45.8846L60.7531 31.1668ZM41.676 28.8827H46.0529L46.6681 31.0448H41.0608L41.676 28.8827ZM64.7054 45.7005H55.3138V38.734H61.2749L64.7054 45.7005ZM32.2552 62.7173C30.7591 62.7173 29.5418 61.4955 29.5418 59.9941C29.5418 58.4926 30.7591 57.2708 32.2552 57.2708C33.7512 57.2708 34.9686 58.4926 34.9686 59.9941C34.9686 61.4955 33.7512 62.7173 32.2552 62.7173ZM57.9468 62.7173C56.4508 62.7173 55.2334 61.4955 55.2334 59.9941C55.2334 58.4926 56.4508 57.2708 57.9468 57.2708C59.4428 57.2708 60.6602 58.4926 60.6602 59.9941C60.6602 61.4955 59.4428 62.7173 57.9468 62.7173ZM63.6915 57.1113H62.7283C61.7498 55.4826 59.9756 54.3881 57.9468 54.3881C55.918 54.3881 54.1438 55.4826 53.1653 57.1113H37.0371C36.0586 55.4826 34.2845 54.3881 32.2556 54.3881C30.2268 54.3881 28.4527 55.4826 27.4741 57.1113H27.3085C26.5167 57.1113 25.8723 56.4646 25.8723 55.67V35.4909C25.8723 34.6962 26.5167 34.0495 27.3085 34.0495H58.9684L59.856 35.8512H52.4415V48.5833H65.1277V55.67C65.1277 56.4646 64.4833 57.1113 63.6915 57.1113Z" fill="white"/>
<path d="M45.8217 40.1649H43.0331V37.3764C43.0331 36.5601 42.3714 35.8984 41.555 35.8984H35.9439C35.1275 35.8984 34.4658 36.5601 34.4658 37.3764V40.1649H31.6773C30.8609 40.1649 30.1992 40.8266 30.1992 41.6429V47.2539C30.1992 48.0703 30.8609 48.7319 31.6773 48.7319H34.4658V51.5204C34.4658 52.3368 35.1275 52.9984 35.9439 52.9984H41.5545C42.3709 52.9984 43.0326 52.3368 43.0326 51.5204V48.7319H45.8212C46.6375 48.7319 47.2992 48.0703 47.2992 47.2539V41.6429C47.2997 40.8266 46.638 40.1649 45.8217 40.1649ZM44.3436 45.7759H41.555C40.7387 45.7759 40.077 46.4376 40.077 47.2539V50.0424H37.4219V47.2539C37.4219 46.4376 36.7603 45.7759 35.9439 45.7759H33.1553V43.1209H35.9439C36.7603 43.1209 37.4219 42.4593 37.4219 41.6429V38.8544H40.077V41.6429C40.077 42.4593 40.7387 43.1209 41.555 43.1209H44.3436V45.7759Z" fill="white"/>
<defs>
<linearGradient id="paint0_linear_82_9312" x1="69.9859" y1="8.43708" x2="-14.3398" y2="48.3562" gradientUnits="userSpaceOnUse">
<stop stop-color="#107A71"/>
<stop offset="1" stop-color="#3FAD88"/>
</linearGradient>
</defs>
</svg>
