<svg width="91" height="91" viewBox="0 0 91 91" fill="none" xmlns="http://www.w3.org/2000/svg">
<circle cx="45.5" cy="45.5" r="45.5" fill="url(#paint0_linear_82_9310)"/>
<path d="M49.4644 54.3859H41.5342C40.7024 54.3859 40.0282 53.7119 40.0282 52.8803V48.357H35.5041C34.6722 48.357 33.998 47.683 33.998 46.8514V38.9251C33.998 38.0935 34.6722 37.4195 35.5041 37.4195H40.0282V32.8962C40.0282 32.0646 40.7024 31.3906 41.5342 31.3906H49.4644C50.2962 31.3906 50.9704 32.0646 50.9704 32.8962V37.4195H55.4945C56.3264 37.4195 57.0006 38.0935 57.0006 38.9251V46.8514C57.0006 47.683 56.3264 48.357 55.4945 48.357H50.9704V52.8803C50.9704 53.7119 50.2962 54.3859 49.4644 54.3859ZM43.0402 51.3747H47.9584V46.8514C47.9584 46.0199 48.6326 45.3459 49.4644 45.3459H53.9885V40.4306H49.4644C48.6326 40.4306 47.9584 39.7566 47.9584 38.9251V34.4018H43.0402V38.9251C43.0402 39.7566 42.366 40.4306 41.5342 40.4306H37.0101V45.3459H41.5342C42.366 45.3459 43.0402 46.0199 43.0402 46.8514V51.3747Z" fill="white"/>
<path d="M45.5 70.9991C45.1717 70.9991 44.8429 70.8922 44.5703 70.6779C41.4689 68.2454 26 55.4149 26 41.6403C26 31.037 34.5848 22.265 45.1702 22.011C45.2304 22.0035 45.2917 22 45.3539 22L45.4764 22.0025L45.6461 22C45.7088 22 45.7706 22.004 45.8308 22.011C56.4152 22.266 65 31.0375 65 41.6403C65 55.4149 49.5311 68.2454 46.4297 70.6779C46.1566 70.8922 45.8283 70.9991 45.5 70.9991ZM45.4779 25.0142C45.4448 25.0167 45.4111 25.0187 45.378 25.0192C36.3534 25.1622 29.012 32.6189 29.012 41.6408C29.012 53.011 41.2495 64.0659 45.5 67.5614C49.7505 64.0659 61.988 53.011 61.988 41.6408C61.988 32.6184 54.6466 25.1622 45.622 25.0192C45.5884 25.0187 45.5547 25.0172 45.5216 25.0142L45.5 25.0147L45.4779 25.0142Z" fill="white"/>
<defs>
<linearGradient id="paint0_linear_82_9310" x1="69.9859" y1="8.43708" x2="-14.3398" y2="48.3562" gradientUnits="userSpaceOnUse">
<stop stop-color="#107A71"/>
<stop offset="1" stop-color="#3FAD88"/>
</linearGradient>
</defs>
</svg>
