<svg width="91" height="91" viewBox="0 0 91 91" fill="none" xmlns="http://www.w3.org/2000/svg">
<circle cx="45.5" cy="45.5" r="45.5" fill="url(#paint0_linear_82_9311)"/>
<path d="M56.092 52.231C55.8238 51.9314 54.7227 50.8208 53.1688 50.8208C52.4437 50.8208 51.7578 51.0573 51.1295 51.5241C50.2712 52.1623 48.992 53.2905 48.0885 54.1071L36.9042 43.056C37.8961 41.9742 38.9608 40.7721 39.5738 39.955C41.024 38.0232 39.9555 35.966 38.8567 35.0166C38.353 34.5159 33.8488 30.0433 32.7369 29.0813C32.0356 28.4738 31.1764 28.1523 30.2518 28.1523C29.5015 28.1523 28.9465 28.3683 28.8428 28.4115L28.3606 28.6949C25.9219 30.2514 23.1584 32.0155 23 38.9257C22.9953 44.2627 26.546 50.5013 33.554 57.4686C38.6796 62.5645 44.7662 68.0014 52.1531 68.0014L52.1965 68.0009C59.1176 67.8435 60.8906 65.096 62.4552 62.6718L62.6248 62.4094L62.7388 62.1943C63.0682 61.4173 63.2976 59.727 62.0689 58.3205C61.0971 57.2113 56.5672 52.7034 56.092 52.231ZM53.1692 53.6078C53.4757 53.6078 53.8696 53.9371 53.992 54.076L54.0775 54.1684C55.7813 55.862 59.2026 59.2913 59.9543 60.1497C60.2594 60.4994 60.2132 60.8854 60.1753 61.0452L60.0964 61.1678C59.9305 61.4247 59.7684 61.6746 59.6035 61.9166L52.0227 54.3798C52.3096 54.1415 52.5782 53.9269 52.8076 53.7564C52.987 53.6231 53.0996 53.6078 53.1692 53.6078ZM29.9865 30.969C30.05 30.9546 30.1434 30.9397 30.2514 30.9397C30.499 30.9397 30.7036 31.0169 30.8956 31.1831C31.7609 31.9314 35.2097 35.3324 36.9127 37.026L37.0056 37.1105C37.1299 37.2136 37.7279 37.7543 37.3266 38.2889C37.1603 38.5109 36.9337 38.7906 36.6646 39.1101L29.0731 31.5626C29.3319 31.3871 29.5996 31.2161 29.8753 31.0401L29.9865 30.969ZM52.1629 65.2145L52.1531 66.6079V65.2145C46.4729 65.2145 41.402 61.3304 35.5363 55.4983C29.1647 49.1635 25.799 43.4341 25.8027 38.9592C25.8644 36.2586 26.3316 34.631 27.059 33.5019L34.8075 41.205C34.5463 41.4897 34.2758 41.7828 33.9866 42.0921L33.0106 43.1382L48.0217 57.9693L49.0084 57.0534C49.1 56.9679 49.4494 56.6442 49.9138 56.2243L57.6688 63.9353C56.5359 64.6747 54.9011 65.1518 52.1629 65.2145Z" fill="white"/>
<path d="M49.0046 25.4669C49.6985 24.7138 50.8342 24 52.5038 24C54.8073 24 56.2909 25.5616 56.8128 27.275C57.3187 28.945 57.0128 31.0114 55.5731 32.4369C55.0738 32.9103 54.5441 33.3515 53.9875 33.7579L53.9075 33.8191C53.3476 34.2449 52.8477 34.6314 52.4078 35.0612C51.898 35.566 51.4801 36.1161 51.2381 36.816H55.5031C55.9008 36.816 56.2823 36.9718 56.5635 37.2492C56.8448 37.5265 57.0028 37.9026 57.0028 38.2948C57.0028 38.687 56.8448 39.0631 56.5635 39.3405C56.2823 39.6178 55.9008 39.7736 55.5031 39.7736H49.5045C49.1068 39.7736 48.7254 39.6178 48.4441 39.3405C48.1629 39.0631 48.0049 38.687 48.0049 38.2948C48.0049 35.8361 49.0526 34.1878 50.2923 32.9693C50.8842 32.3856 51.528 31.8947 52.0719 31.4787L52.0779 31.4747C52.6498 31.039 53.0937 30.6998 53.4476 30.3508C53.9915 29.8106 54.1814 28.9214 53.9395 28.1228C53.7095 27.3716 53.1997 26.9575 52.5038 26.9575C51.798 26.9575 51.4341 27.2277 51.2241 27.4564C51.1013 27.5901 51.0013 27.7426 50.9282 27.9079V27.9138C50.8057 28.2872 50.5378 28.5973 50.1834 28.7759C49.8291 28.9545 49.4173 28.9869 49.0386 28.8662C48.66 28.7454 48.3455 28.4812 48.1644 28.1318C47.9833 27.7823 47.9504 27.3763 48.0729 27.0029L48.1428 26.8136C48.3483 26.3191 48.6412 25.8634 49.0046 25.4669ZM60.5019 24C60.8997 24 61.2811 24.1558 61.5623 24.4331C61.8436 24.7104 62.0016 25.0866 62.0016 25.4788V30.9009H65.0009V25.4788C65.0009 25.0866 65.1589 24.7104 65.4401 24.4331C65.7213 24.1558 66.1028 24 66.5005 24C66.8983 24 67.2797 24.1558 67.5609 24.4331C67.8422 24.7104 68.0002 25.0866 68.0002 25.4788V38.2357C68.0002 38.6279 67.8422 39.004 67.5609 39.2813C67.2797 39.5586 66.8983 39.7144 66.5005 39.7144C66.1028 39.7144 65.7213 39.5586 65.4401 39.2813C65.1589 39.004 65.0009 38.6279 65.0009 38.2357V33.8585H60.5019C60.1042 33.8585 59.7228 33.7027 59.4415 33.4254C59.1603 33.148 59.0023 32.7719 59.0023 32.3797V25.4788C59.0023 25.0866 59.1603 24.7104 59.4415 24.4331C59.7228 24.1558 60.1042 24 60.5019 24Z" fill="white"/>
<defs>
<linearGradient id="paint0_linear_82_9311" x1="69.9859" y1="8.43708" x2="-14.3398" y2="48.3562" gradientUnits="userSpaceOnUse">
<stop stop-color="#107A71"/>
<stop offset="1" stop-color="#3FAD88"/>
</linearGradient>
</defs>
</svg>
