<svg width="0" height="0" class="hidden">
  <symbol fill="none" xmlns="http://www.w3.org/2000/svg" viewBox="0 0 43 43" id="contact-phone">
    <circle cx="21.5" cy="21.5" r="21.5" fill="url(#paint0_linear_136_4170)"></circle>
    <path d="M27.8913 23.8765C27.7706 23.7411 27.2751 23.2395 26.5758 23.2395C26.2495 23.2395 25.9409 23.3463 25.6581 23.5571C25.2719 23.8454 24.6963 24.355 24.2897 24.7239L19.2569 19.732C19.7032 19.2434 20.1823 18.7004 20.4582 18.3313C21.1107 17.4587 20.6299 16.5295 20.1354 16.1006C19.9088 15.8744 17.8819 13.8541 17.3815 13.4196C17.066 13.1452 16.6794 13 16.2633 13C15.9257 13 15.6759 13.0976 15.6292 13.1171L15.4123 13.2451C14.3148 13.9481 13.0713 14.745 13 17.8664C12.9979 20.2771 14.5957 23.0951 17.7492 26.2423C20.0558 28.5441 22.7947 31 26.1188 31L26.1383 30.9998C29.2528 30.9287 30.0506 29.6876 30.7547 28.5926L30.831 28.4741L30.8823 28.3769C31.0305 28.0259 31.1338 27.2624 30.5808 26.6271C30.1435 26.1261 28.1051 24.0898 27.8913 23.8765ZM26.576 24.4983C26.714 24.4983 26.8912 24.6471 26.9463 24.7098L26.9847 24.7516C27.7515 25.5166 29.291 27.0656 29.6293 27.4533C29.7666 27.6113 29.7458 27.7857 29.7288 27.8579L29.6932 27.9132C29.6186 28.0293 29.5456 28.1421 29.4714 28.2515L26.0601 24.847C26.1892 24.7394 26.3101 24.6425 26.4133 24.5655C26.494 24.5053 26.5447 24.4983 26.576 24.4983ZM16.1439 14.2723C16.1725 14.2658 16.2145 14.2591 16.2631 14.2591C16.3745 14.2591 16.4666 14.2939 16.553 14.369C16.9424 14.707 18.4943 16.2433 19.2606 17.0083L19.3025 17.0464C19.3584 17.093 19.6275 17.3372 19.4469 17.5787C19.3721 17.679 19.2701 17.8053 19.149 17.9497L15.7329 14.5404C15.8493 14.4611 15.9698 14.3839 16.0938 14.3044L16.1439 14.2723ZM26.1232 29.7411L26.1188 30.3706V29.7411C23.5627 29.7411 21.2808 27.9867 18.6413 25.3523C15.7741 22.4909 14.2595 19.9028 14.2612 17.8815C14.289 16.6616 14.4992 15.9265 14.8265 15.4164L18.3133 18.8959C18.1958 19.0245 18.0741 19.1569 17.9439 19.2967L17.5047 19.7692L24.2597 26.4685L24.7037 26.0547C24.7449 26.0161 24.9021 25.8699 25.1111 25.6802L28.6008 29.1633C28.091 29.4973 27.3554 29.7128 26.1232 29.7411Z" fill="white"></path>
    <defs>
      <linearGradient id="paint0_linear_136_4170" x1="33.0703" y1="3.98675" x2="-6.77596" y2="22.8497" gradientUnits="userSpaceOnUse">
        <stop stop-color="#107A71"></stop>
        <stop offset="1" stop-color="#3FAD88"></stop>
      </linearGradient>
    </defs>
  </symbol>
  <symbol fill="none" xmlns="http://www.w3.org/2000/svg" viewBox="0 0 43 43" id="contact-address">
    <circle cx="21.5" cy="21.5" r="21.5" fill="url(#paint0_linear_136_4178)"></circle>
    <path d="M23.6264 25.2219H20.373C20.0317 25.2219 19.7551 24.9468 19.7551 24.6074V22.7611H17.8991C17.5578 22.7611 17.2812 22.486 17.2812 22.1466V18.9113C17.2812 18.5718 17.5578 18.2967 17.8991 18.2967H19.7551V16.4505C19.7551 16.111 20.0317 15.8359 20.373 15.8359H23.6264C23.9677 15.8359 24.2443 16.111 24.2443 16.4505V18.2967H26.1003C26.4416 18.2967 26.7182 18.5718 26.7182 18.9113V22.1466C26.7182 22.486 26.4416 22.7611 26.1003 22.7611H24.2443V24.6074C24.2443 24.9468 23.9677 25.2219 23.6264 25.2219ZM20.9909 23.9928H23.0086V22.1466C23.0086 21.8072 23.2852 21.5321 23.6264 21.5321H25.4825V19.5258H23.6264C23.2852 19.5258 23.0086 19.2507 23.0086 18.9113V17.065H20.9909V18.9113C20.9909 19.2507 20.7143 19.5258 20.373 19.5258H18.517V21.5321H20.373C20.7143 21.5321 20.9909 21.8072 20.9909 22.1466V23.9928Z" fill="white"></path>
    <path d="M22 32C21.8653 32 21.7304 31.9564 21.6186 31.8689C20.3462 30.876 14 25.639 14 20.0166C14 15.6886 17.522 12.1082 21.8647 12.0045C21.8894 12.0014 21.9145 12 21.9401 12L21.9903 12.001L22.0599 12C22.0857 12 22.111 12.0016 22.1357 12.0045C26.478 12.1086 30 15.6888 30 20.0166C30 25.639 23.6538 30.876 22.3814 31.8689C22.2694 31.9564 22.1347 32 22 32ZM21.9909 13.2303C21.9773 13.2313 21.9635 13.2321 21.95 13.2323C18.2476 13.2907 15.2357 16.3343 15.2357 20.0168C15.2357 24.6578 20.2562 29.1701 22 30.5968C23.7438 29.1701 28.7643 24.6578 28.7643 20.0168C28.7643 16.3341 25.7524 13.2907 22.05 13.2323C22.0362 13.2321 22.0224 13.2315 22.0089 13.2303L22 13.2305L21.9909 13.2303Z" fill="white"></path>
    <defs>
      <linearGradient id="paint0_linear_136_4178" x1="33.0703" y1="3.98675" x2="-6.77596" y2="22.8497" gradientUnits="userSpaceOnUse">
        <stop stop-color="#107A71"></stop>
        <stop offset="1" stop-color="#3FAD88"></stop>
      </linearGradient>
    </defs>
  </symbol>
</svg>