<svg xmlns="http://www.w3.org/2000/svg"><symbol viewBox="0 0 43 43" id="phone-icon">
<circle cx="21.5" cy="21.5" r="21.5" fill="#EEF8F6"/>
<path d="M28.8721 23.8482C28.7211 23.6789 28.101 23.0512 27.226 23.0512C26.8177 23.0512 26.4315 23.1848 26.0777 23.4486C25.5944 23.8094 24.8741 24.4471 24.3654 24.9086L18.0676 18.6622C18.6261 18.0508 19.2257 17.3713 19.5708 16.9095C20.3874 15.8176 19.7858 14.6548 19.167 14.1181C18.8834 13.8351 16.3471 11.3071 15.721 10.7634C15.3261 10.42 14.8423 10.2383 14.3217 10.2383C13.8992 10.2383 13.5867 10.3604 13.5283 10.3848L13.2568 10.5449C11.8835 11.4247 10.3275 12.4218 10.2383 16.3277C10.2357 19.3443 12.235 22.8705 16.1811 26.8087C19.0673 29.689 22.4946 32.7621 26.6541 32.7621L26.6786 32.7618C30.5757 32.6728 31.5741 31.1199 32.4551 29.7497L32.5506 29.6013L32.6148 29.4798C32.8003 29.0405 32.9295 28.0852 32.2376 27.2902C31.6904 26.6632 29.1396 24.1152 28.8721 23.8482ZM27.2263 24.6264C27.3989 24.6264 27.6206 24.8126 27.6896 24.8911L27.7377 24.9433C28.6971 25.9005 30.6236 27.8389 31.0469 28.3241C31.2187 28.5218 31.1927 28.7399 31.1713 28.8303L31.1269 28.8996C31.0335 29.0447 30.9422 29.186 30.8493 29.3228L26.5807 25.0628C26.7422 24.9281 26.8935 24.8068 27.0227 24.7104C27.1237 24.6351 27.1871 24.6264 27.2263 24.6264ZM14.1723 11.8303C14.2081 11.8222 14.2607 11.8138 14.3215 11.8138C14.4609 11.8138 14.5761 11.8574 14.6842 11.9514C15.1714 12.3743 17.1135 14.2967 18.0724 15.2539L18.1247 15.3017C18.1947 15.36 18.5314 15.6656 18.3054 15.9678C18.2118 16.0932 18.0842 16.2513 17.9327 16.4319L13.658 12.1659C13.8037 12.0666 13.9545 11.97 14.1097 11.8705L14.1723 11.8303ZM26.6596 31.1868L26.6541 31.9745V31.1868C23.4556 31.1868 20.6002 28.9915 17.2973 25.695C13.7095 22.1144 11.8144 18.8759 11.8165 16.3466C11.8512 14.8202 12.1143 13.9002 12.5239 13.262L16.887 17.616C16.7399 17.7769 16.5876 17.9426 16.4247 18.1175L15.8752 18.7087L24.3277 27.0917L24.8834 26.574C24.9349 26.5256 25.1317 26.3427 25.3932 26.1053L29.76 30.4638C29.122 30.8818 28.2015 31.1514 26.6596 31.1868Z" fill="#107A71"/>
</symbol><symbol viewBox="0 0 43 43" id="sos-phone-ico">
<circle cx="21.5" cy="21.5" r="21.5" fill="url(#paint0_linear_24_4219)"/>
<path d="M29.176 24.5452C29.0368 24.3891 28.4653 23.8105 27.6588 23.8105C27.2824 23.8105 26.9264 23.9337 26.6003 24.1769C26.1548 24.5094 25.4909 25.0972 25.0219 25.5227L19.2168 19.7649C19.7317 19.2013 20.2843 18.575 20.6024 18.1493C21.3551 17.1428 20.8006 16.071 20.2302 15.5763C19.9688 15.3154 17.6309 12.9852 17.0538 12.484C16.6898 12.1675 16.2439 12 15.764 12C15.3745 12 15.0865 12.1125 15.0326 12.135L14.7824 12.2827C13.5166 13.0936 12.0822 14.0127 12 17.613C11.9976 20.3936 13.8405 23.644 17.4779 27.274C20.1383 29.9291 23.2975 32.7617 27.1316 32.7617L27.1541 32.7615C30.7464 32.6794 31.6667 31.248 32.4788 29.985L32.5668 29.8482L32.626 29.7362C32.7969 29.3313 32.916 28.4507 32.2782 27.7179C31.7739 27.14 29.4226 24.7913 29.176 24.5452ZM27.659 25.2625C27.8181 25.2625 28.0225 25.4341 28.086 25.5065L28.1304 25.5546C29.0148 26.437 30.7906 28.2237 31.1807 28.6709C31.3391 28.8531 31.3151 29.0542 31.2954 29.1375L31.2544 29.2014C31.1684 29.3352 31.0842 29.4654 30.9986 29.5915L27.0639 25.6647C27.2128 25.5406 27.3522 25.4288 27.4713 25.34C27.5644 25.2705 27.6229 25.2625 27.659 25.2625ZM15.6262 13.4675C15.6592 13.46 15.7077 13.4523 15.7637 13.4523C15.8923 13.4523 15.9985 13.4924 16.0981 13.5791C16.5472 13.9689 18.3373 15.7409 19.2212 16.6232L19.2695 16.6673C19.334 16.721 19.6444 17.0027 19.4361 17.2812C19.3497 17.3969 19.2321 17.5426 19.0924 17.7091L15.1522 13.7768C15.2865 13.6853 15.4255 13.5963 15.5685 13.5045L15.6262 13.4675ZM27.1367 31.3097L27.1316 32.0357V31.3097C24.1833 31.3097 21.5513 29.2861 18.5068 26.2475C15.1997 22.947 13.4528 19.9619 13.4547 17.6305C13.4867 16.2234 13.7292 15.3755 14.1068 14.7872L18.1285 18.8005C17.993 18.9489 17.8526 19.1016 17.7025 19.2628L17.1959 19.8078L24.9872 27.5349L25.4994 27.0577C25.5469 27.0132 25.7283 26.8445 25.9693 26.6257L29.9944 30.6432C29.4064 31.0285 28.5579 31.277 27.1367 31.3097Z" fill="white"/>
<defs>
<linearGradient id="paint0_linear_24_4219" x1="33.0703" y1="3.98675" x2="-6.77596" y2="22.8497" gradientUnits="userSpaceOnUse">
<stop stop-color="#107A71"/>
<stop offset="1" stop-color="#3FAD88"/>
</linearGradient>
</defs>
</symbol></svg>