<svg width="59" height="60" viewBox="0 0 59 60" fill="none" xmlns="http://www.w3.org/2000/svg">
<path d="M35.7752 27.4277C35.6547 25.9862 32.0931 23.3915 29.879 27.9082C28.9162 25.3855 25.5382 23.8254 23.742 27.1888C22.9115 28.7437 22.6363 31.8364 27.275 35.4949C28.7884 36.6885 30.9236 36.6238 32.3872 35.3695C34.016 33.9736 35.6208 32.2635 35.7752 31.0314" stroke="#107A71" stroke-width="2" stroke-linecap="round" stroke-linejoin="round"/>
<path d="M42.8765 8.66455L42.3033 7.98905C41.9526 7.57578 41.995 6.95837 42.3989 6.5969L47.9032 1.67054C48.3163 1.3008 48.9514 1.33772 49.3189 1.75284L57.1098 10.5536C57.4855 10.978 57.4337 11.6295 56.9956 11.9892L51.0975 16.8325C50.6756 17.179 50.0537 17.123 49.7004 16.7066L49.3743 16.3223M42.8765 8.66455C42.2039 9.78589 39.767 11.6815 35.3579 10.4232C35.2382 10.3891 35.1269 10.3295 35.0244 10.259C33.7745 9.39862 30.5435 8.4271 26.391 10.73L15.7484 16.9865C15.625 17.059 15.5175 17.1558 15.4414 17.2771C14.653 18.5337 14.0945 20.8433 17.4865 21.3009M42.8765 8.66455L49.3743 16.3223M17.4865 21.3009L26.5697 17.9756L21.1886 23.7168C21.0501 23.8645 20.8711 23.9698 20.6706 23.9984C19.3363 24.1889 17.2193 23.8802 17.4865 21.3009ZM49.3743 16.3223L44.901 19.4301C44.835 19.4759 44.7638 19.5136 44.6889 19.5424L41.7897 20.6555C41.7123 20.6852 41.6315 20.7052 41.5492 20.715L36.8204 21.277C36.6876 21.2928 36.5529 21.2817 36.4244 21.2446L28.7609 19.0271C28.4788 18.9455 28.2415 18.7461 28.1492 18.4674C27.749 17.2586 27.6954 15.4584 29.9192 15.4156C29.9723 15.4146 30.0272 15.4191 30.0796 15.4275L35.6565 16.3223" stroke="#107A71" stroke-width="2" stroke-linecap="round" stroke-linejoin="round"/>
<path d="M15.9204 51.3354L16.4936 52.011C16.8442 52.4242 16.8018 53.0416 16.398 53.4031L10.8937 58.3295C10.4805 58.6992 9.84547 58.6623 9.47799 58.2472L1.68712 49.4464C1.3114 49.022 1.3632 48.3705 1.80126 48.0108L7.69933 43.1675C8.12129 42.821 8.74318 42.877 9.09644 43.2934L9.42256 43.6777M15.9204 51.3354C16.593 50.2141 19.0299 48.3185 23.4389 49.5768C23.5586 49.6109 23.67 49.6705 23.7725 49.741C25.0224 50.6014 28.2534 51.5729 32.4059 49.27L43.0485 43.0135C43.1719 42.941 43.2794 42.8442 43.3554 42.7229C44.1439 41.4663 44.7024 39.1567 41.3104 38.6991M15.9204 51.3354L9.42256 43.6777M41.3104 38.6991L32.5808 42.378L37.601 36.3217C37.7435 36.1498 37.9384 36.0269 38.1597 35.997C39.4956 35.8164 41.5754 36.1413 41.3104 38.6991ZM9.42256 43.6777L13.8959 40.5699C13.9618 40.5241 14.0331 40.4864 14.108 40.4576L17.0072 39.3445C17.0846 39.3148 17.1653 39.2948 17.2476 39.285L21.9765 38.723C22.1093 38.7072 22.2439 38.7183 22.3724 38.7554L30.036 40.9729C30.318 41.0545 30.5554 41.2539 30.6477 41.5326C31.0527 42.756 31.1027 44.5852 28.796 44.5852L23.3811 43.8841" stroke="#107A71" stroke-width="2" stroke-linecap="round"/>
</svg>
