<svg width="9" height="18" viewBox="0 0 9 18" fill="none" xmlns="http://www.w3.org/2000/svg">
<path d="M0.201779 1.24939L7.37468 9.00079L0.201779 16.7522C0.0733642 16.8907 0.00147216 17.0766 0.00147216 17.2702C0.00147216 17.4638 0.0733642 17.6497 0.201779 17.7882C0.264151 17.8553 0.338597 17.9085 0.420759 17.9449C0.502921 17.9813 0.591146 18 0.680267 18C0.769388 18 0.857613 17.9813 0.939775 17.9449C1.02194 17.9085 1.09638 17.8553 1.15875 17.7882L8.79101 9.54206C8.92501 9.39724 9 9.20302 9 9.00079C9 8.79857 8.92501 8.60434 8.79101 8.45953L1.16023 0.213388C1.09781 0.145857 1.02318 0.0921803 0.940745 0.0555305C0.858311 0.0188808 0.769743 0 0.680267 0C0.590792 0 0.502222 0.0188808 0.419788 0.0555305C0.337354 0.0921803 0.262725 0.145857 0.200306 0.213388C0.0718913 0.351879 0 0.537794 0 0.73139C0 0.924984 0.0718913 1.1109 0.200306 1.24939H0.201779Z" fill="#107A71"/>
</svg>
