<svg width="43" height="43" viewBox="0 0 43 43" fill="none" xmlns="http://www.w3.org/2000/svg">
<circle cx="21.5" cy="21.5" r="21.5" fill="#EEF8F6"/>
<path d="M28.8721 23.8482C28.7211 23.6789 28.101 23.0512 27.226 23.0512C26.8177 23.0512 26.4315 23.1848 26.0777 23.4486C25.5944 23.8094 24.8741 24.4471 24.3654 24.9086L18.0676 18.6622C18.6261 18.0508 19.2257 17.3713 19.5708 16.9095C20.3874 15.8176 19.7858 14.6548 19.167 14.1181C18.8834 13.8351 16.3471 11.3071 15.721 10.7634C15.3261 10.42 14.8423 10.2383 14.3217 10.2383C13.8992 10.2383 13.5867 10.3604 13.5283 10.3848L13.2568 10.5449C11.8835 11.4247 10.3275 12.4218 10.2383 16.3277C10.2357 19.3443 12.235 22.8705 16.1811 26.8087C19.0673 29.689 22.4946 32.7621 26.6541 32.7621L26.6786 32.7618C30.5757 32.6728 31.5741 31.1199 32.4551 29.7497L32.5506 29.6013L32.6148 29.4798C32.8003 29.0405 32.9295 28.0852 32.2376 27.2902C31.6904 26.6632 29.1396 24.1152 28.8721 23.8482ZM27.2263 24.6264C27.3989 24.6264 27.6206 24.8126 27.6896 24.8911L27.7377 24.9433C28.6971 25.9005 30.6236 27.8389 31.0469 28.3241C31.2187 28.5218 31.1927 28.7399 31.1713 28.8303L31.1269 28.8996C31.0335 29.0447 30.9422 29.186 30.8493 29.3228L26.5807 25.0628C26.7422 24.9281 26.8935 24.8068 27.0227 24.7104C27.1237 24.6351 27.1871 24.6264 27.2263 24.6264ZM14.1723 11.8303C14.2081 11.8222 14.2607 11.8138 14.3215 11.8138C14.4609 11.8138 14.5761 11.8574 14.6842 11.9514C15.1714 12.3743 17.1135 14.2967 18.0724 15.2539L18.1247 15.3017C18.1947 15.36 18.5314 15.6656 18.3054 15.9678C18.2118 16.0932 18.0842 16.2513 17.9327 16.4319L13.658 12.1659C13.8037 12.0666 13.9545 11.97 14.1097 11.8705L14.1723 11.8303ZM26.6596 31.1868L26.6541 31.9745V31.1868C23.4556 31.1868 20.6002 28.9915 17.2973 25.695C13.7095 22.1144 11.8144 18.8759 11.8165 16.3466C11.8512 14.8202 12.1143 13.9002 12.5239 13.262L16.887 17.616C16.7399 17.7769 16.5876 17.9426 16.4247 18.1175L15.8752 18.7087L24.3277 27.0917L24.8834 26.574C24.9349 26.5256 25.1317 26.3427 25.3932 26.1053L29.76 30.4638C29.122 30.8818 28.2015 31.1514 26.6596 31.1868Z" fill="#107A71"/>
</svg>
