<svg width="9" height="18" viewBox="0 0 9 18" fill="none" xmlns="http://www.w3.org/2000/svg">
<path d="M8.79822 1.24939L1.62532 9.00079L8.79822 16.7522C8.92664 16.8907 8.99853 17.0766 8.99853 17.2702C8.99853 17.4638 8.92664 17.6497 8.79822 17.7882C8.73585 17.8553 8.6614 17.9085 8.57924 17.9449C8.49708 17.9813 8.40885 18 8.31973 18C8.23061 18 8.14239 17.9813 8.06023 17.9449C7.97806 17.9085 7.90362 17.8553 7.84125 17.7882L0.208991 9.54206C0.0749941 9.39724 0 9.20302 0 9.00079C0 8.79857 0.0749941 8.60434 0.208991 8.45953L7.83977 0.213388C7.90219 0.145857 7.97682 0.0921803 8.05925 0.0555305C8.14169 0.0188808 8.23026 0 8.31973 0C8.40921 0 8.49778 0.0188808 8.58021 0.0555305C8.66265 0.0921803 8.73728 0.145857 8.79969 0.213388C8.92811 0.351879 9 0.537794 9 0.73139C9 0.924984 8.92811 1.1109 8.79969 1.24939H8.79822Z" fill="#107A71"/>
</svg>
