<svg width="72" height="72" viewBox="0 0 72 72" fill="none" xmlns="http://www.w3.org/2000/svg">
<circle cx="36" cy="36" r="36" fill="#FFE4E4" fill-opacity="0.3"/>
<circle cx="36" cy="36" r="31" fill="url(#paint0_linear_24_4932)"/>
<path d="M22.25 41.12C22.59 40.9 22.76 40.59 22.76 40.19C22.76 39.79 22.51 39.47 22.01 39.23C21.51 38.97 20.9 38.75 20.18 38.57C19.48 38.37 18.77 38.14 18.05 37.88C17.33 37.6 16.72 37.16 16.22 36.56C15.72 35.96 15.47 35.2 15.47 34.28C15.47 33 15.93 32 16.85 31.28C17.79 30.54 18.98 30.17 20.42 30.17C22.62 30.17 24.33 30.74 25.55 31.88L24.26 34.34C23.16 33.48 21.94 33.05 20.6 33.05C20.1 33.05 19.69 33.17 19.37 33.41C19.07 33.63 18.92 33.9 18.92 34.22C18.92 34.62 19.17 34.95 19.67 35.21C20.17 35.47 20.77 35.69 21.47 35.87C22.19 36.05 22.91 36.27 23.63 36.53C24.35 36.79 24.96 37.22 25.46 37.82C25.96 38.4 26.21 39.13 26.21 40.01C26.21 41.33 25.71 42.38 24.71 43.16C23.73 43.94 22.41 44.33 20.75 44.33C19.59 44.33 18.44 44.08 17.3 43.58C16.18 43.08 15.45 42.56 15.11 42.02L16.79 39.77C17.19 40.21 17.82 40.6 18.68 40.94C19.54 41.28 20.31 41.45 20.99 41.45C21.51 41.45 21.93 41.34 22.25 41.12ZM30.4201 42.35C29.0801 41.01 28.4101 39.31 28.4101 37.25C28.4101 35.19 29.0801 33.5 30.4201 32.18C31.7801 30.84 33.5601 30.17 35.7601 30.17C37.9601 30.17 39.7301 30.84 41.0701 32.18C42.4301 33.5 43.1101 35.19 43.1101 37.25C43.1101 39.31 42.4301 41.01 41.0701 42.35C39.7301 43.67 37.9601 44.33 35.7601 44.33C33.5601 44.33 31.7801 43.67 30.4201 42.35ZM32.1001 37.25C32.1001 38.37 32.4401 39.3 33.1201 40.04C33.8201 40.76 34.7001 41.12 35.7601 41.12C36.8401 41.12 37.7201 40.77 38.4001 40.07C39.1001 39.35 39.4501 38.41 39.4501 37.25C39.4501 36.13 39.1001 35.21 38.4001 34.49C37.7001 33.77 36.8201 33.41 35.7601 33.41C34.7201 33.41 33.8501 33.77 33.1501 34.49C32.4501 35.19 32.1001 36.11 32.1001 37.25ZM52.4258 41.12C52.7658 40.9 52.9358 40.59 52.9358 40.19C52.9358 39.79 52.6858 39.47 52.1858 39.23C51.6858 38.97 51.0758 38.75 50.3558 38.57C49.6558 38.37 48.9458 38.14 48.2258 37.88C47.5058 37.6 46.8958 37.16 46.3958 36.56C45.8958 35.96 45.6458 35.2 45.6458 34.28C45.6458 33 46.1058 32 47.0258 31.28C47.9658 30.54 49.1558 30.17 50.5958 30.17C52.7958 30.17 54.5058 30.74 55.7258 31.88L54.4358 34.34C53.3358 33.48 52.1158 33.05 50.7758 33.05C50.2758 33.05 49.8658 33.17 49.5458 33.41C49.2458 33.63 49.0958 33.9 49.0958 34.22C49.0958 34.62 49.3458 34.95 49.8458 35.21C50.3458 35.47 50.9458 35.69 51.6458 35.87C52.3658 36.05 53.0858 36.27 53.8058 36.53C54.5258 36.79 55.1358 37.22 55.6358 37.82C56.1358 38.4 56.3858 39.13 56.3858 40.01C56.3858 41.33 55.8858 42.38 54.8858 43.16C53.9058 43.94 52.5858 44.33 50.9258 44.33C49.7658 44.33 48.6158 44.08 47.4758 43.58C46.3558 43.08 45.6258 42.56 45.2858 42.02L46.9658 39.77C47.3658 40.21 47.9958 40.6 48.8558 40.94C49.7158 41.28 50.4858 41.45 51.1658 41.45C51.6858 41.45 52.1058 41.34 52.4258 41.12Z" fill="white"/>
<defs>
<linearGradient id="paint0_linear_24_4932" x1="62.5" y1="25" x2="14.5" y2="51" gradientUnits="userSpaceOnUse">
<stop stop-color="#BE2135"/>
<stop offset="1" stop-color="#E24050"/>
</linearGradient>
</defs>
</svg>
