<svg width="43" height="43" viewBox="0 0 43 43" fill="none" xmlns="http://www.w3.org/2000/svg">
<circle cx="21.5" cy="21.5" r="21.5" fill="url(#paint0_linear_24_4219)"/>
<path d="M29.176 24.5452C29.0368 24.3891 28.4653 23.8105 27.6588 23.8105C27.2824 23.8105 26.9264 23.9337 26.6003 24.1769C26.1548 24.5094 25.4909 25.0972 25.0219 25.5227L19.2168 19.7649C19.7317 19.2013 20.2843 18.575 20.6024 18.1493C21.3551 17.1428 20.8006 16.071 20.2302 15.5763C19.9688 15.3154 17.6309 12.9852 17.0538 12.484C16.6898 12.1675 16.2439 12 15.764 12C15.3745 12 15.0865 12.1125 15.0326 12.135L14.7824 12.2827C13.5166 13.0936 12.0822 14.0127 12 17.613C11.9976 20.3936 13.8405 23.644 17.4779 27.274C20.1383 29.9291 23.2975 32.7617 27.1316 32.7617L27.1541 32.7615C30.7464 32.6794 31.6667 31.248 32.4788 29.985L32.5668 29.8482L32.626 29.7362C32.7969 29.3313 32.916 28.4507 32.2782 27.7179C31.7739 27.14 29.4226 24.7913 29.176 24.5452ZM27.659 25.2625C27.8181 25.2625 28.0225 25.4341 28.086 25.5065L28.1304 25.5546C29.0148 26.437 30.7906 28.2237 31.1807 28.6709C31.3391 28.8531 31.3151 29.0542 31.2954 29.1375L31.2544 29.2014C31.1684 29.3352 31.0842 29.4654 30.9986 29.5915L27.0639 25.6647C27.2128 25.5406 27.3522 25.4288 27.4713 25.34C27.5644 25.2705 27.6229 25.2625 27.659 25.2625ZM15.6262 13.4675C15.6592 13.46 15.7077 13.4523 15.7637 13.4523C15.8923 13.4523 15.9985 13.4924 16.0981 13.5791C16.5472 13.9689 18.3373 15.7409 19.2212 16.6232L19.2695 16.6673C19.334 16.721 19.6444 17.0027 19.4361 17.2812C19.3497 17.3969 19.2321 17.5426 19.0924 17.7091L15.1522 13.7768C15.2865 13.6853 15.4255 13.5963 15.5685 13.5045L15.6262 13.4675ZM27.1367 31.3097L27.1316 32.0357V31.3097C24.1833 31.3097 21.5513 29.2861 18.5068 26.2475C15.1997 22.947 13.4528 19.9619 13.4547 17.6305C13.4867 16.2234 13.7292 15.3755 14.1068 14.7872L18.1285 18.8005C17.993 18.9489 17.8526 19.1016 17.7025 19.2628L17.1959 19.8078L24.9872 27.5349L25.4994 27.0577C25.5469 27.0132 25.7283 26.8445 25.9693 26.6257L29.9944 30.6432C29.4064 31.0285 28.5579 31.277 27.1367 31.3097Z" fill="white"/>
<defs>
<linearGradient id="paint0_linear_24_4219" x1="33.0703" y1="3.98675" x2="-6.77596" y2="22.8497" gradientUnits="userSpaceOnUse">
<stop stop-color="#107A71"/>
<stop offset="1" stop-color="#3FAD88"/>
</linearGradient>
</defs>
</svg>
