<svg width="110" height="23" viewBox="0 0 110 23" fill="none" xmlns="http://www.w3.org/2000/svg">
<g clip-path="url(#clip0_136_4026)">
<path d="M11 2.08992L13.3458 7.72985L13.489 8.07419L13.8607 8.10399L19.9495 8.59212L15.3105 12.5659L15.0273 12.8085L15.1138 13.1713L16.5311 19.1129L11.3183 15.9289L11 15.7345L10.6817 15.9289L5.46889 19.1129L6.88618 13.1713L6.97272 12.8085L6.68949 12.5659L2.05048 8.59212L8.13926 8.10399L8.511 8.07419L8.65422 7.72985L11 2.08992Z" fill="#FED84C" stroke="#FED84C" stroke-width="1.22115"/>
<path d="M33 2.08992L35.3458 7.72985L35.489 8.07419L35.8607 8.10399L41.9495 8.59212L37.3105 12.5659L37.0273 12.8085L37.1138 13.1713L38.5311 19.1129L33.3183 15.9289L33 15.7345L32.6817 15.9289L27.4689 19.1129L28.8862 13.1713L28.9727 12.8085L28.6895 12.5659L24.0505 8.59212L30.1393 8.10399L30.511 8.07419L30.6542 7.72985L33 2.08992Z" fill="#FED84C" stroke="#FED84C" stroke-width="1.22115"/>
<path d="M55 2.08992L57.3458 7.72985L57.489 8.07419L57.8607 8.10399L63.9495 8.59212L59.3105 12.5659L59.0273 12.8085L59.1138 13.1713L60.5311 19.1129L55.3183 15.9289L55 15.7345L54.6817 15.9289L49.4689 19.1129L50.8862 13.1713L50.9727 12.8085L50.6895 12.5659L46.0505 8.59212L52.1393 8.10399L52.511 8.07419L52.6542 7.72985L55 2.08992Z" fill="#FED84C" stroke="#FED84C" stroke-width="1.22115"/>
<path d="M77 2.08992L79.3458 7.72985L79.489 8.07419L79.8607 8.10399L85.9495 8.59212L81.3105 12.5659L81.0273 12.8085L81.1138 13.1713L82.5311 19.1129L77.3183 15.9289L77 15.7345L76.6817 15.9289L71.4689 19.1129L72.8862 13.1713L72.9727 12.8085L72.6895 12.5659L68.0505 8.59212L74.1393 8.10399L74.511 8.07419L74.6542 7.72985L77 2.08992Z" fill="#FED84C" stroke="#FED84C" stroke-width="1.22115"/>
<path d="M99 2.08992L101.346 7.72985L101.489 8.07419L101.861 8.10399L107.95 8.59212L103.311 12.5659L103.027 12.8085L103.114 13.1713L104.531 19.1129L99.3183 15.9289L99 15.7345L98.6817 15.9289L93.4689 19.1129L94.8862 13.1713L94.9727 12.8085L94.6895 12.5659L90.0505 8.59212L96.1393 8.10399L96.511 8.07419L96.6542 7.72985L99 2.08992Z" fill="#FED84C" stroke="#FED84C" stroke-width="1.22115"/>
</g>
<defs>
<clipPath id="clip0_136_4026">
<rect width="110" height="22" fill="white" transform="translate(0 0.5)"/>
</clipPath>
</defs>
</svg>
