<svg width="20" height="22" viewBox="0 0 20 22" fill="none" xmlns="http://www.w3.org/2000/svg">
<path d="M9.1 0.173983L1.32222 3.31072C0.522222 3.63347 0 4.35966 0 5.15645V9.89685C0 15.4946 4.26667 20.7292 10 22C15.7333 20.7292 20 15.4946 20 9.89685V5.15645C20 4.35966 19.4778 3.63347 18.6778 3.31072L10.9 0.173983C10.3333 -0.0579943 9.66667 -0.0579943 9.1 0.173983ZM6.98889 15.2323L4.11111 12.6201C4.00824 12.5267 3.92664 12.4158 3.87097 12.2938C3.8153 12.1718 3.78664 12.0411 3.78664 11.909C3.78664 11.7769 3.8153 11.6462 3.87097 11.5242C3.92664 11.4022 4.00824 11.2913 4.11111 11.1979C4.21398 11.1046 4.3361 11.0305 4.47051 10.98C4.60491 10.9294 4.74897 10.9034 4.89444 10.9034C5.03992 10.9034 5.18398 10.9294 5.31838 10.98C5.45279 11.0305 5.57491 11.1046 5.67778 11.1979L7.77778 13.0941L14.3111 7.16355C14.414 7.07017 14.5361 6.9961 14.6705 6.94557C14.8049 6.89503 14.949 6.86902 15.0944 6.86902C15.2399 6.86902 15.384 6.89503 15.5184 6.94557C15.6528 6.9961 15.7749 7.07017 15.8778 7.16355C15.9806 7.25693 16.0622 7.36779 16.1179 7.48979C16.1736 7.61179 16.2022 7.74256 16.2022 7.87461C16.2022 8.00667 16.1736 8.13743 16.1179 8.25944C16.0622 8.38144 15.9806 8.4923 15.8778 8.58567L8.55556 15.2323C8.45276 15.3258 8.33066 15.4 8.19625 15.4506C8.06183 15.5012 7.91774 15.5273 7.77222 15.5273C7.6267 15.5273 7.48261 15.5012 7.3482 15.4506C7.21378 15.4 7.09168 15.3258 6.98889 15.2323Z" fill="url(#paint0_linear_1_5291)"/>
<defs>
<linearGradient id="paint0_linear_1_5291" x1="15.3815" y1="2.03973" x2="-3.75979" y2="10.2773" gradientUnits="userSpaceOnUse">
<stop stop-color="#107A71"/>
<stop offset="1" stop-color="#3FAD88"/>
</linearGradient>
</defs>
</svg>
